<svg width="31" height="35" viewBox="0 0 31 35" fill="none" xmlns="http://www.w3.org/2000/svg">
<path d="M27.0375 0C28.9948 0 30.5921 1.57731 30.6245 3.54405L30.625 3.605V35L26.8625 31.675L24.745 29.715L22.505 27.6325L23.4325 30.87H3.5875C1.63018 30.87 0.0328954 29.2927 0.000501595 27.3259L0 27.265V3.605C0 1.63036 1.57731 0.0328972 3.52708 0.000501614L3.5875 0H27.0375ZM12.81 8.365L12.635 8.15485L12.5354 8.15604C12.0578 8.17026 9.9351 8.3293 7.7175 9.9925L7.63273 10.1536C7.19359 11.0103 5.1975 15.1798 5.1975 20.195L5.2339 20.253C5.48152 20.6322 7.01557 22.7435 10.535 22.855L11.0504 22.2227C11.2544 21.9709 11.4913 21.6763 11.7075 21.4025C9.66746 20.7921 8.79224 19.5624 8.66228 19.3646L8.645 19.3375L8.71698 19.3855C8.79594 19.4368 8.93812 19.5256 9.135 19.635C9.1525 19.6525 9.17 19.67 9.205 19.6875C9.2575 19.7225 9.31 19.74 9.3625 19.775C9.8 20.02 10.2375 20.2125 10.64 20.37C11.3575 20.65 12.215 20.93 13.2125 21.1225C14.4875 21.3605 15.9772 21.4499 17.6013 21.166L17.745 21.14C18.5675 21 19.4075 20.755 20.2825 20.3875C20.895 20.16 21.5775 19.8275 22.295 19.355L22.2663 19.3986C22.0988 19.6435 21.1828 20.857 19.1275 21.4375L19.4169 21.8002C19.8589 22.349 20.2825 22.855 20.2825 22.855C24.15 22.7325 25.6375 20.195 25.6375 20.195C25.6375 14.56 23.1175 9.9925 23.1175 9.9925C20.9503 8.3671 18.8737 8.17827 18.3347 8.15725L18.2 8.15485L17.955 8.435C20.5932 9.24198 21.9791 10.3655 22.259 10.6095L22.3125 10.6575C20.4925 9.66 18.7075 9.17 17.045 8.9775C15.785 8.8375 14.5775 8.8725 13.51 9.0125C13.405 9.0125 13.3175 9.03 13.2125 9.0475L13.1141 9.05674C12.4503 9.12424 11.0189 9.36863 9.24 10.15L8.98573 10.2686C8.66783 10.419 8.4362 10.5372 8.31184 10.6022L8.2075 10.6575C8.2075 10.6575 9.63109 9.30251 12.716 8.39244L12.81 8.365ZM12.145 14.6825C13.1425 14.6825 13.9475 15.5575 13.93 16.625C13.93 17.6925 13.1425 18.5675 12.145 18.5675C11.165 18.5675 10.36 17.6925 10.36 16.625C10.36 15.5575 11.1475 14.6825 12.145 14.6825ZM18.5325 14.6825C19.53 14.6825 20.3175 15.5575 20.3175 16.625C20.3175 17.6925 19.53 18.5675 18.5325 18.5675C17.5525 18.5675 16.7475 17.6925 16.7475 16.625C16.7475 15.5575 17.535 14.6825 18.5325 14.6825Z" fill="white"/>
</svg>
