<svg width="52" height="74" viewBox="0 0 52 74" fill="none" xmlns="http://www.w3.org/2000/svg">
<path d="M24.4903 0.122705C21.1613 0.714705 18.3097 3.2038 17.1613 6.54052L16.8645 7.38816H14.1032C12.0774 7.38816 11.2387 7.44198 10.929 7.57652C10.3613 7.81871 9.71613 8.61252 9.54839 9.2718L9.40645 9.80998H5.83226C3.74194 9.80998 2.05161 9.8638 1.76774 9.95798C1.16129 10.1329 0.4 10.8056 0.180645 11.3842C0.0258065 11.7474 0 16.9409 0 41.926V72.0238L0.270968 72.6158C0.43871 72.9656 0.76129 73.3423 1.07097 73.5576L1.6 73.9209L25.8452 73.9613C49.3677 73.9882 50.1032 73.9882 50.6323 73.7325C50.9419 73.598 51.3548 73.2482 51.5613 72.9656L51.9355 72.4678L51.9742 42.0336L52 11.6129L51.6258 11.0074C50.9677 9.91762 50.8258 9.87725 46.4387 9.83689L42.6065 9.79652L42.529 9.36598C42.4 8.6798 41.871 7.98016 41.2645 7.67071C40.7355 7.41507 40.4774 7.38816 37.9097 7.38816H35.1355L34.9806 6.80961C34.4516 4.9798 32.8129 2.71943 31.1871 1.61616C29.2129 0.28416 26.7484 -0.267476 24.4903 0.122705ZM28.0258 5.41034C28.4387 5.62561 29.0323 6.09652 29.4323 6.55398L30.129 7.32089L28.1032 7.36125C26.9935 7.37471 25.1484 7.37471 24.0129 7.36125L21.9355 7.32089L22.4645 6.67507C22.9935 6.02925 23.7806 5.47761 24.6194 5.14125C25.4194 4.8318 27.1613 4.96634 28.0258 5.41034ZM37.8065 13.5773V14.7882H26H14.1935V13.5773V12.3663H26H37.8065V13.5773ZM9.41936 16.0933C9.41936 16.8198 9.48387 17.654 9.56129 17.95C9.75484 18.6496 10.5161 19.43 11.1871 19.6183C11.5742 19.726 15.8968 19.7663 26.2839 19.7394C40.5806 19.6991 40.8516 19.6991 41.2774 19.43C41.5226 19.282 41.8968 18.9322 42.1161 18.6496C42.5032 18.1383 42.5161 18.098 42.5677 16.4565L42.6065 14.7882H44.0129C44.9161 14.7882 45.5871 14.8554 45.8452 14.9765C46.4 15.2187 47.0581 16.0125 47.2258 16.6583C47.3161 17.0216 47.3419 25.0002 47.329 42.1816C47.2903 66.5747 47.2903 67.2071 47.0452 67.7183C46.8903 68.0278 46.5548 68.3911 46.2065 68.6198L45.6258 69.01H26.1032C9.9871 69.01 6.50323 68.9831 6.15484 68.8216C5.6 68.5929 4.92903 67.7722 4.83871 67.234C4.8 66.9918 4.7871 55.4343 4.8 41.5493L4.83871 16.3085L5.2129 15.8107C5.79355 15.0169 6.4 14.7882 8.03871 14.7882H9.41936V16.0933Z" fill="#6C63FF"/>
<path d="M17.871 27.422C17.5871 27.5565 16.6323 28.4311 15.7548 29.3729L14.1419 31.0547L13.5484 30.4762C12.8387 29.79 12.1806 29.5209 11.4323 29.642C10.0387 29.8842 9.12257 31.3911 9.54838 32.7635C9.75483 33.4362 12.4774 36.3693 13.2258 36.7325C13.8839 37.0555 14.5032 37.0555 15.1613 36.7325C15.7935 36.4231 20.8258 31.1758 21.0193 30.6242C21.2258 30.0456 21.1871 29.0365 20.929 28.5118C20.4129 27.4355 18.9161 26.8973 17.871 27.422Z" fill="#6C63FF"/>
<path d="M27.4064 29.8438C26.5935 30.234 26.1548 30.9336 26.0903 31.9293C26.0516 32.6558 26.0903 32.8173 26.4258 33.3689C27.1484 34.5395 26.8903 34.4991 34.3226 34.4991C40.6064 34.4991 40.8516 34.4856 41.2774 34.23C41.5226 34.082 41.8968 33.7322 42.1161 33.4496C42.4645 32.9922 42.5161 32.8307 42.5161 32.0907C42.5161 31.0278 42.1032 30.3013 41.2645 29.8707C40.7097 29.5882 40.5548 29.5882 34.3097 29.5882C28.3613 29.5882 27.8968 29.6151 27.4064 29.8438Z" fill="#6C63FF"/>
<path d="M17.9355 39.6925C17.7548 39.7598 16.8516 40.6209 15.9097 41.5896L14.2064 43.3522L13.6774 42.8544C13.3806 42.5718 12.9419 42.2624 12.6968 42.1547C10.8258 41.334 8.8774 43.2715 9.59998 45.2493C9.75482 45.6664 10.2451 46.2718 11.4064 47.4558C13.2258 49.3125 13.5871 49.5144 14.7613 49.2184C15.3806 49.0704 15.5871 48.882 17.9226 46.4871C20.8258 43.5002 21.1613 43.0293 21.1613 42.0067C21.1613 40.9438 20.7484 40.2711 19.7806 39.7598C19.329 39.5176 18.4387 39.4907 17.9355 39.6925Z" fill="#6C63FF"/>
<path d="M27.4194 42.1547C26.9419 42.3835 26.3871 42.9889 26.2065 43.4867C26.0129 44.0115 26.0258 44.8456 26.2452 45.3704C26.4645 45.9489 27.2516 46.6485 27.7678 46.7427C28 46.7831 31.0968 46.81 34.6581 46.7831L41.1226 46.7427L41.6 46.3525C42.1678 45.9085 42.5807 45.0744 42.5807 44.3882C42.5807 43.702 42.1678 42.8678 41.6 42.4238L41.1226 42.0336L34.4645 42.0067C29.0968 41.9798 27.729 42.0067 27.4194 42.1547Z" fill="#6C63FF"/>
<path d="M17.6774 52.1918C17.4323 52.3264 16.5291 53.174 15.6903 54.062L14.142 55.6766L13.5871 55.1384C12.9162 54.4926 12.5162 54.3176 11.7162 54.3311C10.0903 54.3311 8.98067 56.0936 9.61293 57.6678C9.84519 58.2464 12.0903 60.6816 12.8903 61.2198C13.5226 61.6369 14.3613 61.7311 15.0581 61.4755C15.471 61.314 20.6968 55.9456 20.9807 55.394C21.2258 54.8962 21.2129 53.7929 20.942 53.2009C20.8129 52.9318 20.4645 52.5416 20.142 52.3264C19.6774 51.99 19.4323 51.9227 18.8516 51.9227C18.4 51.9362 17.9613 52.0304 17.6774 52.1918Z" fill="#6C63FF"/>
<path d="M27.742 54.3715C26.6194 54.7078 26 55.6496 26.0903 56.9144C26.1549 57.8562 26.6194 58.5558 27.4065 58.9326C27.8968 59.1613 28.3613 59.1882 34.3097 59.1882C40.5549 59.1882 40.7097 59.1882 41.2645 58.9056C42.7226 58.1656 43.0065 56.1071 41.8194 54.9769C41.5355 54.7078 41.0839 54.4387 40.8129 54.358C40.1678 54.1696 28.3742 54.1831 27.742 54.3715Z" fill="#6C63FF"/>
</svg>
